<svg width="180" height="89" viewBox="0 0 180 89" xmlns="http://www.w3.org/2000/svg"><title>award-epa</title><g transform="translate(0 -4)" fill="#FFF" fill-rule="evenodd"><text font-family="GoudyOldStyleT-Regular, Goudy Old Style" font-size="19.2"><tspan x="68.912" y="17">Exact </tspan> <tspan x="52.225" y="39">Pineapple</tspan> <tspan x="45.114" y="61">Accountant</tspan></text><text font-family="GoudyOldStyleT-Regular, Goudy Old Style" font-size="19.2"><tspan x="73" y="92">2017</tspan></text><g transform="translate(0 4)" fill-rule="nonzero"><path d="M6.943 20.877s1.961-2.929.693-6.996C6.363 9.815 3.398 8.27 3.398 8.27s-2.218 3.491-.978 7.454c1.237 3.965 4.523 5.152 4.523 5.152zm5.444 2.08s3.429-.318 5.392-3.87c1.964-3.55.463-7.52.463-7.52s-3.183.75-5.2 4.394c-2.015 3.642-.655 6.996-.655 6.996zm.347 4.694c-1.587 3.916.137 7.04.137 7.04s3.368-.836 4.913-4.65c1.543-3.819-.392-7.527-.392-7.527s-3.07 1.22-4.658 5.137zm7.75 3.155s-2.96 1.554-4.221 5.622c-1.262 4.075.706 6.994.706 6.994s3.281-1.198 4.512-5.166c1.229-3.967-.996-7.45-.996-7.45zm2.467 21.42s2.847-2.244 3.04-6.452c.19-4.212-2.81-6.802-2.81-6.802s-2.448 2.475-2.645 6.794c-.195 4.316 2.415 6.46 2.415 6.46zM11.315 13.04s3.035-1.174 3.925-5.373c.892-4.198-.832-7.389-.832-7.389s-3.516 1.477-4.386 5.573c-.868 4.094 1.293 7.19 1.293 7.19zM6.94 29.805s1.127-3.47-1.12-6.92C3.57 19.434.345 18.97.345 18.97s-1.23 4.093.961 7.458c2.192 3.368 5.634 3.378 5.634 3.378zm2.515 9.157s.432-3.673-2.42-6.459C4.18 29.716.949 30.095.949 30.095S.53 34.404 3.312 37.12c2.785 2.714 6.143 1.842 6.143 1.842zm3.83 7.57s-.542-3.651-3.991-5.303c-3.452-1.657-6.431-.162-6.431-.162s.73 4.253 4.09 5.868c3.361 1.609 6.332-.402 6.332-.402zm1.674 3.145c-3.595-1.164-6.402.731-6.402.731s1.162 4.12 4.664 5.255c3.507 1.137 6.248-1.272 6.248-1.272s-.915-3.552-4.51-4.714z"/><path d="M11.69 15.543l-1.6-.91c-.083.202-8.306 20.435 14.798 43.316l1.156-1.567C4.047 34.594 11.366 16.309 11.689 15.542z"/></g><g transform="translate(153 4)" fill-rule="nonzero"><path d="M19.767 20.839s-1.981-2.93-.7-6.994c1.28-4.068 4.272-5.612 4.272-5.612s2.235 3.488.985 7.453c-1.244 3.965-4.557 5.153-4.557 5.153zm-5.491 2.08s-3.459-.32-5.442-3.87c-1.98-3.55-.466-7.52-.466-7.52s3.21.749 5.247 4.39c2.032 3.645.661 7 .661 7zm-.35 4.69c1.6 3.917-.139 7.041-.139 7.041S10.391 33.814 8.83 30c-1.554-3.819.395-7.527.395-7.527s3.1 1.223 4.7 5.137zm-7.818 3.158s2.983 1.552 4.258 5.627c1.273 4.073-.714 6.992-.714 6.992s-3.307-1.2-4.549-5.168c-1.241-3.968 1.005-7.45 1.005-7.45zM3.616 52.186S.747 49.944.553 45.733c-.192-4.212 2.836-6.805 2.836-6.805s2.465 2.475 2.666 6.797c.198 4.322-2.439 6.46-2.439 6.46zM15.352 13s-3.057-1.175-3.954-5.373c-.9-4.199.842-7.392.842-7.392s3.545 1.477 4.42 5.576C17.537 9.902 15.353 13 15.353 13zm4.417 16.766s-1.137-3.47 1.127-6.92c2.271-3.452 5.525-3.916 5.525-3.916s1.243 4.093-.97 7.458c-2.212 3.368-5.682 3.378-5.682 3.378zm-2.537 9.156s-.437-3.673 2.44-6.463c2.881-2.786 6.141-2.406 6.141-2.406s.42 4.311-2.387 7.025c-2.806 2.714-6.194 1.844-6.194 1.844zm-3.865 7.571s.55-3.655 4.028-5.309c3.484-1.657 6.487-.161 6.487-.161s-.737 4.252-4.127 5.865c-3.391 1.616-6.388-.395-6.388-.395zM11.68 49.64c3.626-1.162 6.46.73 6.46.73s-1.17 4.117-4.705 5.261c-3.534 1.131-6.299-1.277-6.299-1.277s.92-3.55 4.544-4.714z"/><path d="M14.977 15.504l1.617-.91c.085.202 8.377 20.436-14.927 43.314L.504 56.34c22.18-21.782 14.8-40.072 14.473-40.836z"/></g></g></svg>