<svg height="53" viewBox="0 0 40 53" width="40" xmlns="http://www.w3.org/2000/svg"><path d="m23.196 52.475c.023.004.042-.004.064-.004a19.494 19.494 0 0 0 4.493-.817c9.724-2.973 14.186-11.743 11.104-21.825-1.669-5.458-5.006-9.978-9.244-12.72.012-.055.026-.108.031-.164l.827-8.818a1.301 1.301 0 0 0 -.725-1.291 1.314 1.314 0 0 0 -1.47.219l-3.473 3.218-.283-8.329a1.302 1.302 0 0 0 -.925-1.201 1.315 1.315 0 0 0 -1.443.487l-3.255 4.488-5.606-4.47a1.34 1.34 0 0 0 -1.224-.22 1.299 1.299 0 0 0 -.86.9l-1.764 6.449-5.295-1.677a1.318 1.318 0 0 0 -1.454.471 1.302 1.302 0 0 0 -.02 1.523l4.75 6.759-5.123-.49a1.316 1.316 0 0 0 -1.306.734 1.3 1.3 0 0 0 .237 1.475l5.994 6.161c-2.252 4.765-2.62 10.755-.883 16.438 2.59 8.468 9.08 13.172 16.853 12.704zm1.809-26.444-3.22 6.211-5.37-2.74 3.185-6.139zm-4.422 8.531-2.768 5.343-5.375-2.742 2.772-5.344zm-4.305 13.989 2.663-5.136 5.482 2.798-1.925 3.7c-2.256.06-4.349-.42-6.22-1.362zm3.865-7.456 2.77-5.345 5.497 2.806-2.778 5.34-5.49-2.801zm-8.908-1.61 5.375 2.742-2.544 4.904c-1.65-1.321-3.046-3.084-4.098-5.265.026-.038.064-.063.086-.104l1.18-2.277zm11.025-26.929c.002.021.007.04.008.063l-1.304 1.208-2.63-2.89 3.697-5.093zm-9.05-8.026 4.146 3.307-.816 1.126-1.15-1.263a1.31 1.31 0 0 0 -1.352-.368l-.006.002a1.31 1.31 0 0 0 -.91 1.07l-.15 1.089-1.032-.327zm-6.163 5.825 5.564 1.764-.521 3.78-1.23-.118zm6.04 8.263c.7.066 1.33-.429 1.425-1.124l.823-5.964 4.577 5.031a1.313 1.313 0 0 0 1.862.075l5.772-5.344-.42 4.459a16.972 16.972 0 0 0 -1.136-.465 1.314 1.314 0 0 0 -1.683.776 1.298 1.298 0 0 0 .775 1.674c5.094 1.866 9.414 6.791 11.27 12.86 2.667 8.725-1.01 16.013-9.361 18.566-.448.137-.894.247-1.335.347l1.097-2.104.881.45a1.318 1.318 0 0 0 1.764-.568 1.3 1.3 0 0 0 -.565-1.754l-.87-.444 2.778-5.339 2.546 1.3a1.318 1.318 0 0 0 1.764-.568 1.298 1.298 0 0 0 -.567-1.754l-2.536-1.295 2.314-4.444a1.3 1.3 0 0 0 -.557-1.758 1.317 1.317 0 0 0 -1.766.56l-2.318 4.454-5.503-2.808 3.236-6.243 3.788 1.87a1.313 1.313 0 0 0 1.755-.591 1.3 1.3 0 0 0 -.587-1.749l-3.754-1.851.667-1.286a1.3 1.3 0 0 0 -.561-1.756 1.313 1.313 0 0 0 -1.765.563l-.685 1.322-5.431-2.682c.229-.61-.007-1.303-.604-1.61a1.302 1.302 0 0 0 -1.693.476l-1.345-.664a1.315 1.315 0 0 0 -1.757.59 1.299 1.299 0 0 0 .59 1.747l1.29.637-3.169 6.107-2.497-1.273a1.315 1.315 0 0 0 -1.764.567 1.3 1.3 0 0 0 .565 1.756l2.492 1.27-3.373 6.503h-.002l-.768 1.48c-1.759-6.139-.819-12.583 2.503-16.9a1.3 1.3 0 0 0 -.242-1.828 1.316 1.316 0 0 0 -1.836.243c-.206.27-.401.548-.59.83l-2.981-3.065 7.486.717z" fill="#ebba07" fill-rule="evenodd"/></svg>