<svg width="16" height="16" viewBox="0 0 16 16" xmlns="http://www.w3.org/2000/svg"><title>linkedin</title><path d="M3.51 16H.09V4.839h3.42V16zM1.779 3.468C.699 3.468 0 2.692 0 1.732 0 .752.72 0 1.823 0s1.778.753 1.8 1.732c0 .96-.697 1.736-1.844 1.736zM16 16h-3.42V9.814c0-1.44-.496-2.417-1.733-2.417-.944 0-1.506.662-1.754 1.299-.091.226-.114.548-.114.867v6.435H5.557v-7.6c0-1.394-.044-2.559-.09-3.561H8.44l.156 1.55h.07c.45-.728 1.552-1.802 3.398-1.802 2.25 0 3.937 1.53 3.937 4.816V16z" fill="#CCC"/></svg>