<svg width="188" height="52" viewBox="0 0 188 52" xmlns="http://www.w3.org/2000/svg"><title>Logo</title><g fill="none" fill-rule="evenodd"><path d="M68.109 36.464l-1.081-2.842h-9.205l-1.081 2.904c-.423 1.133-.783 1.897-1.082 2.293-.298.397-.787.595-1.467.595-.576 0-1.086-.211-1.529-.633-.443-.422-.664-.901-.664-1.437a3.2 3.2 0 0 1 .154-.957c.103-.33.273-.788.51-1.375l5.792-14.703.594-1.521c.232-.592.48-1.084.742-1.475a3.012 3.012 0 0 1 1.035-.95c.427-.242.955-.363 1.583-.363.638 0 1.17.121 1.598.363a3.07 3.07 0 0 1 1.035.934c.263.381.484.79.664 1.228.18.438.41 1.022.687 1.753l5.916 14.61c.463 1.113.695 1.921.695 2.426 0 .525-.22 1.006-.657 1.444a2.157 2.157 0 0 1-1.583.656c-.36 0-.669-.064-.926-.193a1.898 1.898 0 0 1-.65-.525c-.174-.221-.362-.561-.563-1.02a59.73 59.73 0 0 1-.517-1.212zm-9.082-6.286h6.765l-3.413-9.344-3.352 9.344zM82.35 18.75l8.819 13.344V18.626c0-.876.187-1.532.563-1.97.376-.437.883-.656 1.522-.656.659 0 1.179.219 1.56.656.38.438.571 1.094.571 1.97v17.807c0 1.987-.824 2.981-2.471 2.981a3.28 3.28 0 0 1-1.112-.178 2.823 2.823 0 0 1-.927-.563 5.491 5.491 0 0 1-.803-.904 62.763 62.763 0 0 1-.741-1.058l-8.603-13.19v13.267c0 .865-.2 1.52-.602 1.962-.402.443-.917.664-1.545.664-.648 0-1.168-.224-1.56-.672-.391-.448-.587-1.099-.587-1.954V19.321c0-.742.083-1.323.248-1.746.195-.463.52-.841.973-1.135.453-.293.942-.44 1.467-.44.412 0 .764.067 1.058.2.293.135.55.315.772.541.221.227.448.52.68.88.231.361.47.737.718 1.128zm32.542 17.715l-1.082-2.842h-9.205l-1.08 2.904c-.423 1.133-.783 1.897-1.082 2.293-.298.397-.788.595-1.467.595-.577 0-1.086-.211-1.53-.633-.442-.422-.663-.901-.663-1.437a3.2 3.2 0 0 1 .154-.957c.103-.33.273-.788.51-1.375l5.792-14.703.594-1.521c.232-.592.479-1.084.742-1.475a3.012 3.012 0 0 1 1.034-.95c.428-.242.955-.363 1.583-.363.639 0 1.172.121 1.599.363a3.08 3.08 0 0 1 1.035.934c.262.381.484.79.664 1.228.18.438.41 1.022.687 1.753l5.915 14.61c.464 1.113.695 1.921.695 2.426 0 .525-.218 1.006-.656 1.444a2.157 2.157 0 0 1-1.583.656c-.36 0-.67-.064-.927-.193a1.898 1.898 0 0 1-.648-.525c-.175-.221-.363-.561-.564-1.02-.2-.458-.373-.862-.517-1.212zm-9.082-6.286h6.765l-3.413-9.344-3.352 9.344zm23.32-11.429l8.82 13.344V18.626c0-.876.187-1.532.563-1.97.376-.437.883-.656 1.521-.656.66 0 1.18.219 1.56.656.381.438.572 1.094.572 1.97v17.807c0 1.987-.824 2.981-2.471 2.981a3.28 3.28 0 0 1-1.112-.178 2.823 2.823 0 0 1-.927-.563 5.491 5.491 0 0 1-.803-.904 62.763 62.763 0 0 1-.742-1.058l-8.602-13.19v13.267c0 .865-.201 1.52-.603 1.962-.401.443-.916.664-1.544.664-.649 0-1.169-.224-1.56-.672-.391-.448-.587-1.099-.587-1.954V19.321c0-.742.083-1.323.247-1.746.196-.463.52-.841.973-1.135.453-.293.942-.44 1.468-.44.411 0 .764.067 1.058.2.293.135.55.315.772.541.221.227.448.52.68.88.231.361.47.737.717 1.128zm32.542 17.715l-1.08-2.842h-9.206l-1.08 2.904c-.423 1.133-.783 1.897-1.082 2.293-.299.397-.788.595-1.467.595-.577 0-1.087-.211-1.53-.633-.442-.422-.663-.901-.663-1.437a3.2 3.2 0 0 1 .154-.957c.103-.33.273-.788.51-1.375l5.791-14.703.595-1.521c.232-.592.479-1.084.741-1.475a3.012 3.012 0 0 1 1.035-.95c.427-.242.955-.363 1.583-.363.639 0 1.171.121 1.599.363a3.08 3.08 0 0 1 1.035.934c.262.381.484.79.664 1.228.18.438.409 1.022.687 1.753l5.915 14.61c.464 1.113.695 1.921.695 2.426 0 .525-.219 1.006-.656 1.444a2.157 2.157 0 0 1-1.583.656c-.36 0-.67-.064-.927-.193a1.898 1.898 0 0 1-.649-.525c-.175-.221-.362-.561-.563-1.02a57.81 57.81 0 0 1-.518-1.212zm-9.081-6.286h6.765l-3.414-9.344-3.351 9.344zm34.55 2.054c0 1.37-.353 2.6-1.058 3.692-.706 1.091-1.738 1.946-3.097 2.563-1.36.618-2.97.927-4.834.927-2.235 0-4.078-.422-5.53-1.266a7.367 7.367 0 0 1-2.51-2.433c-.643-1.014-.964-2-.964-2.958 0-.556.193-1.032.579-1.428.386-.397.877-.595 1.475-.595.484 0 .893.155 1.228.464.334.308.62.767.857 1.374.288.72.6 1.323.934 1.807.335.484.806.883 1.413 1.197.608.314 1.406.471 2.394.471 1.36 0 2.464-.316 3.313-.95.85-.633 1.274-1.423 1.274-2.37 0-.752-.229-1.362-.687-1.83-.458-.47-1.05-.827-1.776-1.074-.726-.247-1.696-.51-2.911-.788-1.627-.38-2.989-.826-4.086-1.336-1.096-.51-1.966-1.204-2.61-2.085-.643-.88-.965-1.974-.965-3.282 0-1.246.34-2.352 1.02-3.32.679-.968 1.662-1.712 2.95-2.232 1.286-.52 2.8-.78 4.54-.78 1.39 0 2.592.172 3.606.517 1.015.345 1.856.804 2.525 1.375.67.571 1.159 1.171 1.468 1.8.309.627.463 1.24.463 1.837 0 .546-.193 1.038-.58 1.475a1.847 1.847 0 0 1-1.443.657c-.525 0-.924-.132-1.197-.394-.273-.263-.569-.693-.888-1.29-.412-.855-.906-1.521-1.483-2-.576-.479-1.503-.718-2.78-.718-1.184 0-2.139.26-2.865.78-.726.52-1.089 1.145-1.089 1.876 0 .453.124.845.37 1.174.248.33.588.613 1.02.85.433.236.87.422 1.313.556.443.133 1.174.329 2.193.586 1.277.299 2.433.629 3.468.989 1.034.36 1.915.798 2.64 1.313a5.4 5.4 0 0 1 1.7 1.953c.406.788.61 1.753.61 2.896z" fill="#FFF"/><path d="M22.474 52.011c.023.004.043-.004.064-.004a19.39 19.39 0 0 0 4.49-.814c9.717-2.97 14.166-11.765 11.072-21.888-1.675-5.478-5.017-10.02-9.257-12.776.011-.056.026-.108.03-.164l.815-8.849a1.31 1.31 0 0 0-2.196-1.078l-3.466 3.225-.294-8.359a1.31 1.31 0 0 0-2.368-.72l-3.248 4.5-5.61-4.493a1.337 1.337 0 0 0-1.223-.222 1.297 1.297 0 0 0-.858.902L8.668 7.738 3.374 6.051A1.31 1.31 0 0 0 1.903 8.05l4.756 6.789-5.12-.5a1.31 1.31 0 0 0-1.067 2.217l6 6.19c-2.244 4.779-2.604 10.79-.86 16.495 2.599 8.502 9.094 13.23 16.863 12.771zm1.774-26.535l-3.21 6.23-5.372-2.759 3.176-6.155 5.406 2.684zm-4.409 8.556l-2.76 5.357-5.377-2.758 2.764-5.36 5.373 2.76zm-4.285 14.032l2.655-5.15 5.484 2.815-1.92 3.71c-2.255.057-4.347-.427-6.219-1.375zm3.854-7.477l2.761-5.36 5.5 2.823-2.77 5.354-5.491-2.817zM10.5 38.96l5.377 2.758-2.536 4.918c-1.652-1.328-3.05-3.099-4.104-5.289.026-.038.064-.063.086-.105L10.5 38.96zm10.986-27.01c.002.021.008.04.008.063l-1.3 1.21-2.634-2.902 3.689-5.106.237 6.735zM12.43 3.883l4.15 3.324-.815 1.13-1.151-1.27a1.309 1.309 0 0 0-1.352-.371l-.006.002a1.31 1.31 0 0 0-.909 1.073l-.149 1.092-1.031-.33 1.263-4.65zM6.278 9.721l5.564 1.777-.516 3.793-1.23-.12-3.818-5.45zm6.048 8.3c.7.067 1.329-.429 1.423-1.126l.815-5.985 4.582 5.056a1.307 1.307 0 0 0 1.861.078l5.763-5.357-.413 4.474a17.28 17.28 0 0 0-1.137-.467 1.31 1.31 0 1 0-.905 2.457c5.095 1.88 9.42 6.827 11.282 12.92 2.678 8.76-.987 16.068-9.332 18.62-.448.136-.893.246-1.334.346l1.094-2.11.881.453a1.314 1.314 0 0 0 1.762-.567 1.31 1.31 0 0 0-.567-1.763l-.87-.446L30 39.25l2.547 1.308a1.314 1.314 0 0 0 1.762-.567 1.308 1.308 0 0 0-.569-1.762l-2.537-1.302 2.308-4.457a1.31 1.31 0 0 0-2.324-1.206l-2.311 4.467-5.505-2.824 3.227-6.261 3.79 1.88a1.31 1.31 0 0 0 1.163-2.346l-3.755-1.862.665-1.29a1.31 1.31 0 0 0-2.326-1.2l-.683 1.325-5.433-2.698a1.296 1.296 0 0 0-.606-1.617 1.297 1.297 0 0 0-1.692.476l-1.344-.668a1.309 1.309 0 1 0-1.164 2.344l1.29.641-3.16 6.124-2.498-1.281a1.31 1.31 0 0 0-1.195 2.33l2.493 1.278-3.363 6.521h-.002l-.766 1.484c-1.766-6.162-.835-12.628 2.48-16.956a1.31 1.31 0 0 0-2.08-1.593c-.205.27-.4.549-.589.831l-2.981-3.078 7.483.73z" fill="#EBBA07"/></g></svg>